<svg xmlns="http://www.w3.org/2000/svg" width="620.012" height="86.061" viewBox="0 0 620.012 86.061">
  <path id="Path_462" data-name="Path 462" d="M165.629,852.775h0a5.748,5.748,0,0,1-1.033-3.1h0a4.639,4.639,0,0,1,2.409-3.9h0a4.486,4.486,0,0,1,2.639-.8h0a5.264,5.264,0,0,1,3.787,1.722h0a24.25,24.25,0,0,0,7.4,5.851h0a21.22,21.22,0,0,0,9.465,1.95h0a16.159,16.159,0,0,0,7.688-2.007h0a6.525,6.525,0,0,0,3.327-6.138h0a6.584,6.584,0,0,0-3.376-5.966h0a38.5,38.5,0,0,0-9.925-3.787h0a73.03,73.03,0,0,1-10.671-3.614h0a19.112,19.112,0,0,1-7.171-5.507h0a14.579,14.579,0,0,1-2.926-9.466h0a14.686,14.686,0,0,1,2.926-9.064h0a19.446,19.446,0,0,1,7.8-6.077h0a25.7,25.7,0,0,1,10.613-2.179h0a30.711,30.711,0,0,1,10.956,2.065h0a20.583,20.583,0,0,1,8.892,6.31h0a5.074,5.074,0,0,1,1.378,3.327h0a4.931,4.931,0,0,1-1.835,3.557h0a4.127,4.127,0,0,1-2.87,1.032h0a4.3,4.3,0,0,1-3.327-1.376h0a16.138,16.138,0,0,0-5.909-4.246h0a19.561,19.561,0,0,0-7.745-1.492h0a14.428,14.428,0,0,0-7.4,1.778h0a6.415,6.415,0,0,0-3.039,6.023h0a6.67,6.67,0,0,0,3.5,5.966h0a44.5,44.5,0,0,0,10.384,3.787h0a63.923,63.923,0,0,1,10.1,3.442h0a17.612,17.612,0,0,1,6.769,5.449h0a15.2,15.2,0,0,1,2.753,9.465h0a14.722,14.722,0,0,1-3.1,9.351h0A19.976,19.976,0,0,1,200,861.206h0a26.84,26.84,0,0,1-10.613,2.122h0a34.805,34.805,0,0,1-13.367-2.532h0A24.928,24.928,0,0,1,165.629,852.775ZM292.747,801.03h0q20.079,0,20.079,25.012h0v30.633h0a5.474,5.474,0,0,1-1.491,3.959h0a5.172,5.172,0,0,1-3.9,1.548h0a5.26,5.26,0,0,1-3.959-1.607h0a5.411,5.411,0,0,1-1.55-3.9h0V826.158h0q0-15.025-12.621-15.025h0a16.375,16.375,0,0,0-8.088,2.007h0a14.535,14.535,0,0,0-5.622,5.449h0a14.758,14.758,0,0,0-2.007,7.573h0v30.518h0a5.411,5.411,0,0,1-1.55,3.9h0a5.261,5.261,0,0,1-3.959,1.607h0a5.172,5.172,0,0,1-3.9-1.548h0a5.473,5.473,0,0,1-1.491-3.959h0V826.042h0a18.475,18.475,0,0,0-2.87-10.841h0q-2.87-4.074-9.523-4.074h0a15.377,15.377,0,0,0-11.186,4.3h0a14.231,14.231,0,0,0-4.418,10.613h0v30.633h0a5.41,5.41,0,0,1-1.55,3.9h0a5.26,5.26,0,0,1-3.959,1.607h0a5.173,5.173,0,0,1-3.9-1.548h0a5.473,5.473,0,0,1-1.492-3.959h0V807.57h0a5.414,5.414,0,0,1,1.548-3.9h0a5.123,5.123,0,0,1,3.844-1.605h0a5.258,5.258,0,0,1,3.959,1.605h0a5.413,5.413,0,0,1,1.55,3.9h0v4.014h0a25.087,25.087,0,0,1,7.973-7.514h0a20.459,20.459,0,0,1,10.841-3.039h0q14.226,0,18.472,12.621h0a24.356,24.356,0,0,1,8.375-8.721h0a21.971,21.971,0,0,1,12.391-3.9Zm85.132.23h0a5.363,5.363,0,0,1,3.959,1.548h0a5.508,5.508,0,0,1,1.548,4.074h0v49.8h0a5.41,5.41,0,0,1-1.548,3.9h0a5.26,5.26,0,0,1-3.959,1.607h0a5.172,5.172,0,0,1-3.9-1.548h0a5.473,5.473,0,0,1-1.492-3.959h0V853.7h0a24.558,24.558,0,0,1-8.145,6.827h0a22.9,22.9,0,0,1-11.128,2.811h0a26.018,26.018,0,0,1-14.169-4.016h0a27.553,27.553,0,0,1-9.982-11.186h0a35.311,35.311,0,0,1-3.614-16.12h0a35.309,35.309,0,0,1,3.614-16.12h0a27.7,27.7,0,0,1,9.925-11.186h0a25.339,25.339,0,0,1,13.883-4.016h0a25.616,25.616,0,0,1,11.3,2.532h0a23.407,23.407,0,0,1,8.318,6.425h0V806.9h0a5.674,5.674,0,0,1,1.492-4.016h0a5.076,5.076,0,0,1,3.9-1.606Zm-23.4,51.973h0a17.05,17.05,0,0,0,9.58-2.753h0a18.61,18.61,0,0,0,6.54-7.573h0a24.523,24.523,0,0,0,2.352-10.9h0a24.258,24.258,0,0,0-2.352-10.784h0a19.026,19.026,0,0,0-6.54-7.63h0a16.785,16.785,0,0,0-9.58-2.811h0a17.038,17.038,0,0,0-9.58,2.753h0a18.608,18.608,0,0,0-6.54,7.573h0a24.527,24.527,0,0,0-2.352,10.9h0a24.527,24.527,0,0,0,2.352,10.9h0a18.612,18.612,0,0,0,6.54,7.573h0a17.05,17.05,0,0,0,9.58,2.753Zm75.035-52.547h0a8.687,8.687,0,0,1,5.162,1.548h0a4.588,4.588,0,0,1,2.179,3.844h0a5.672,5.672,0,0,1-1.433,4.187h0a4.76,4.76,0,0,1-3.5,1.435h0a10.93,10.93,0,0,1-3.1-.689h0a12.878,12.878,0,0,0-3.787-.8h0a11.67,11.67,0,0,0-6.942,2.466h0a18.062,18.062,0,0,0-5.507,6.769h0a21.356,21.356,0,0,0-2.122,9.58h0v27.65h0a5.41,5.41,0,0,1-1.55,3.9h0a5.261,5.261,0,0,1-3.959,1.607h0a5.173,5.173,0,0,1-3.9-1.548h0a5.473,5.473,0,0,1-1.492-3.959h0v-49.1h0a5.414,5.414,0,0,1,1.55-3.9h0a5.123,5.123,0,0,1,3.844-1.605h0a5.258,5.258,0,0,1,3.959,1.605h0a5.413,5.413,0,0,1,1.55,3.9h0v5.851h0a21.722,21.722,0,0,1,7.573-9.116h0a20.322,20.322,0,0,1,11.479-3.614Zm43.254,12.047h-9.526v34.19h0q0,5.74,5.162,5.74h0a8.313,8.313,0,0,0,2.179-.4h0a8.3,8.3,0,0,1,2.179-.4h0a3.15,3.15,0,0,1,2.532,1.263h0a4.907,4.907,0,0,1,1.033,3.208h0a4.907,4.907,0,0,1-2.753,4.131h0a11.448,11.448,0,0,1-6.2,1.722h0a28.122,28.122,0,0,1-6.942-.8h0a10.3,10.3,0,0,1-5.621-4.074h0q-2.466-3.27-2.466-9.925h0V812.734h-6.655a4.9,4.9,0,0,1-3.614-1.435h0a4.9,4.9,0,0,1-1.435-3.614h0a4.71,4.71,0,0,1,1.435-3.557h0a5.007,5.007,0,0,1,3.614-1.378h6.655v-9.638h0a5.412,5.412,0,0,1,1.548-3.9h0a5.259,5.259,0,0,1,3.959-1.607h0a5.124,5.124,0,0,1,3.844,1.607h0a5.412,5.412,0,0,1,1.548,3.9h0v9.638h9.523a4.9,4.9,0,0,1,3.614,1.435h0a4.9,4.9,0,0,1,1.433,3.614h0a4.71,4.71,0,0,1-1.433,3.557h0a5.009,5.009,0,0,1-3.614,1.378Zm47.729-11.7h0q20.192,0,20.192,25.012h0v30.633h0a5.411,5.411,0,0,1-1.548,3.9h0a5.261,5.261,0,0,1-3.959,1.607h0a5.123,5.123,0,0,1-3.844-1.607h0a5.41,5.41,0,0,1-1.55-3.9h0V826.042h0q0-14.915-12.621-14.915h0a15.575,15.575,0,0,0-11.243,4.3h0a14.14,14.14,0,0,0-4.475,10.613h0v30.633h0a5.411,5.411,0,0,1-1.548,3.9h0a5.26,5.26,0,0,1-3.959,1.607h0a5.173,5.173,0,0,1-3.9-1.548h0a5.471,5.471,0,0,1-1.491-3.959h0V782.788h0a5.413,5.413,0,0,1,1.548-3.9h0a5.125,5.125,0,0,1,3.844-1.606h0a5.26,5.26,0,0,1,3.959,1.605h0a5.412,5.412,0,0,1,1.548,3.9h0v29.036h0a24.468,24.468,0,0,1,8.03-7.63h0a20.765,20.765,0,0,1,11.013-3.155Zm93.392,31.092h0a32.1,32.1,0,0,1-4.016,16.063h0a29.168,29.168,0,0,1-10.956,11.13h0a30.035,30.035,0,0,1-15.317,4.016h0a30.036,30.036,0,0,1-15.317-4.016h0a29.166,29.166,0,0,1-10.956-11.13h0a32.1,32.1,0,0,1-4.016-16.063h0a32.75,32.75,0,0,1,4.016-16.178h0A28.949,28.949,0,0,1,568.279,804.7h0a30.037,30.037,0,0,1,15.317-4.016h0a30.037,30.037,0,0,1,15.317,4.016h0a28.95,28.95,0,0,1,10.956,11.243h0a32.75,32.75,0,0,1,4.016,16.178Zm-10.9,0h0a23.3,23.3,0,0,0-2.581-11.071h0a19.147,19.147,0,0,0-7-7.573h0a18.459,18.459,0,0,0-9.81-2.7h0a18.463,18.463,0,0,0-9.81,2.7h0a19.15,19.15,0,0,0-7,7.573h0a23.3,23.3,0,0,0-2.581,11.071h0a22.715,22.715,0,0,0,2.581,10.9h0a19.246,19.246,0,0,0,7,7.514h0a18.457,18.457,0,0,0,9.81,2.7h0a18.458,18.458,0,0,0,9.81-2.7h0a19.244,19.244,0,0,0,7-7.514h0a22.717,22.717,0,0,0,2.581-10.9ZM695.46,801.03h0q20.077,0,20.077,25.012h0v30.633h0a5.473,5.473,0,0,1-1.491,3.959h0a5.172,5.172,0,0,1-3.9,1.548h0a5.261,5.261,0,0,1-3.959-1.607h0a5.41,5.41,0,0,1-1.55-3.9h0V826.158h0q0-15.025-12.621-15.025h0a16.375,16.375,0,0,0-8.088,2.007h0a14.537,14.537,0,0,0-5.622,5.449h0a14.76,14.76,0,0,0-2.007,7.573h0v30.518h0a5.411,5.411,0,0,1-1.548,3.9h0a5.26,5.26,0,0,1-3.959,1.607h0a5.172,5.172,0,0,1-3.9-1.548h0a5.473,5.473,0,0,1-1.492-3.959h0V826.042h0a18.474,18.474,0,0,0-2.87-10.841h0q-2.87-4.074-9.523-4.074h0a15.375,15.375,0,0,0-11.186,4.3h0a14.231,14.231,0,0,0-4.418,10.613h0v30.633h0a5.41,5.41,0,0,1-1.548,3.9h0a5.261,5.261,0,0,1-3.959,1.607h0a5.173,5.173,0,0,1-3.9-1.548h0a5.473,5.473,0,0,1-1.492-3.959h0V807.57h0a5.414,5.414,0,0,1,1.548-3.9h0a5.123,5.123,0,0,1,3.844-1.605h0a5.258,5.258,0,0,1,3.959,1.605h0a5.413,5.413,0,0,1,1.548,3.9h0v4.014h0a25.091,25.091,0,0,1,7.973-7.514h0a20.458,20.458,0,0,1,10.841-3.039h0q14.226,0,18.472,12.621h0a24.352,24.352,0,0,1,8.375-8.721h0a21.971,21.971,0,0,1,12.391-3.9Zm89.146,28.8h0a4.907,4.907,0,0,1-1.72,3.5h0a5.5,5.5,0,0,1-3.787,1.433H738.715a19.963,19.963,0,0,0,6.368,13.422h0a19.5,19.5,0,0,0,13.595,5.048h0a21.3,21.3,0,0,0,8.947-1.605h0a22.479,22.479,0,0,0,6.077-4.131h0a6.469,6.469,0,0,1,3.327-1.033h0a4.347,4.347,0,0,1,3.27,1.378h0a4.5,4.5,0,0,1,1.32,3.207h0a5.666,5.666,0,0,1-2.294,4.359h0a27.011,27.011,0,0,1-8.834,5.622h0a28.985,28.985,0,0,1-11.243,2.294h0a33.241,33.241,0,0,1-16.35-3.9h0a27.179,27.179,0,0,1-10.9-10.9h0a32.337,32.337,0,0,1-3.844-15.833h0a34.9,34.9,0,0,1,3.959-16.922h0a28.685,28.685,0,0,1,10.441-11.187h0a26.573,26.573,0,0,1,13.941-3.9h0a26.674,26.674,0,0,1,13.769,3.786h0A28.757,28.757,0,0,1,780.592,814.9h0a29.785,29.785,0,0,1,4.016,14.915ZM756.5,810.783h0a17.737,17.737,0,0,0-11.128,3.614h0a17.8,17.8,0,0,0-6.2,11.187h33.841v-.918h0a14.012,14.012,0,0,0-5.449-9.982h0a17.248,17.248,0,0,0-11.071-3.9Z" transform="translate(-164.596 -777.278)" fill="#464646"/>
</svg>
